<svg width="56" height="57" viewBox="0 0 56 57" fill="none" xmlns="http://www.w3.org/2000/svg">
<path d="M50.75 28.5C50.75 22.4663 48.3531 16.6798 44.0867 12.4133C39.8202 8.14687 34.0337 5.75 28 5.75C21.9663 5.75 16.1798 8.14687 11.9133 12.4133C7.64687 16.6798 5.25 22.4663 5.25 28.5C5.25 34.5337 7.64687 40.3202 11.9133 44.5867C16.1798 48.8531 21.9663 51.25 28 51.25C34.0337 51.25 39.8202 48.8531 44.0867 44.5867C48.3531 40.3202 50.75 34.5337 50.75 28.5ZM0 28.5C0 21.0739 2.94999 13.952 8.20101 8.70101C13.452 3.44999 20.5739 0.5 28 0.5C35.4261 0.5 42.548 3.44999 47.799 8.70101C53.05 13.952 56 21.0739 56 28.5C56 35.9261 53.05 43.048 47.799 48.299C42.548 53.55 35.4261 56.5 28 56.5C20.5739 56.5 13.452 53.55 8.20101 48.299C2.94999 43.048 0 35.9261 0 28.5ZM20.5953 16.5891C21.4266 16.1297 22.4328 16.1406 23.2531 16.6438L39.0031 26.2688C39.7797 26.75 40.2609 27.5922 40.2609 28.5109C40.2609 29.4297 39.7797 30.2719 39.0031 30.7531L23.2531 40.3781C22.4438 40.8703 21.4266 40.8922 20.5953 40.4328C19.7641 39.9734 19.25 39.0984 19.25 38.1469V18.8969C19.25 17.9453 19.7641 17.0703 20.5953 16.6109V16.5891Z" fill="black"/>
</svg>
