<svg width="32" height="33" viewBox="0 0 32 33" fill="none" xmlns="http://www.w3.org/2000/svg">
<path d="M31.9942 31.0629V1.86237L31.9946 1.8597L31.9942 1.85704V1.73163H31.9843C31.9603 1.39719 31.8408 1.08633 31.649 0.859771C31.4573 0.633212 31.2071 0.507221 30.9474 0.506404C30.9351 0.506404 30.9235 0.510673 30.9115 0.511206H29.0264C28.9971 0.508004 28.9686 0.5 28.9385 0.5C28.6609 0.500424 28.3949 0.643196 28.1986 0.896997C28.0024 1.1508 27.892 1.49491 27.8917 1.85383C27.8917 1.91627 27.8995 1.97657 27.9061 2.03687V14.3857L14.1495 4.11325C14.0514 3.98784 13.9271 3.90224 13.7919 3.86698C13.6567 3.83172 13.5164 3.84833 13.3884 3.91478C13.2604 3.98123 13.1502 4.09461 13.0714 4.24099C12.9925 4.38736 12.9485 4.56035 12.9447 4.73867H12.9422V12.8761L1.20687 4.11271C1.10878 3.9873 0.984483 3.9017 0.849273 3.86644C0.714064 3.83118 0.573834 3.8478 0.445829 3.91425C0.317825 3.9807 0.207626 4.09408 0.128784 4.24045C0.0499432 4.38683 0.00589723 4.55981 0.00206307 4.73813H0V28.2346C0.000198827 28.4168 0.0423677 28.5948 0.121124 28.7459C0.199881 28.897 0.311654 29.0142 0.442177 29.0828C0.572701 29.1513 0.716056 29.168 0.853947 29.1307C0.991837 29.0934 1.11801 29.0039 1.21636 28.8734L12.9422 20.1175V28.2352C12.9424 28.4174 12.9846 28.5954 13.0633 28.7464C13.1421 28.8975 13.2538 29.0148 13.3844 29.0833C13.5149 29.1519 13.6582 29.1686 13.7961 29.1313C13.934 29.094 14.0602 29.0044 14.1585 28.8739L27.9061 18.6084V31.0859H27.9115C27.9107 31.1067 27.9065 31.1259 27.9065 31.1467C27.9067 31.5052 28.0167 31.849 28.2126 32.1027C28.4084 32.3564 28.6741 32.4993 28.9513 32.5H30.9532V32.4872C31.0907 32.4872 31.2268 32.4522 31.3538 32.3841C31.4808 32.3161 31.5962 32.2164 31.6934 32.0907C31.7906 31.9649 31.8677 31.8157 31.9203 31.6514C31.9729 31.4872 32 31.3111 32 31.1334C31.9996 31.1088 31.995 31.0864 31.9942 31.0629Z" fill="black"/>
</svg>
