<svg width="32" height="33" viewBox="0 0 32 33" fill="none" xmlns="http://www.w3.org/2000/svg">
<path d="M0.00577719 1.93708V31.1376L0.00536481 31.1403L0.00577719 31.143V31.2684H0.0156806C0.0396999 31.6028 0.159248 31.9137 0.350979 32.1402C0.542709 32.3668 0.792853 32.4928 1.05256 32.4936C1.06494 32.4936 1.07649 32.4893 1.08845 32.4888H2.97365C3.00294 32.492 3.03141 32.5 3.06153 32.5C3.33905 32.4996 3.60511 32.3568 3.80135 32.103C3.99759 31.8492 4.10798 31.5051 4.10831 31.1462C4.10831 31.0837 4.10047 31.0234 4.09387 30.9631V18.6143L17.8505 28.8868C17.9486 29.0122 18.0729 29.0978 18.2081 29.133C18.3433 29.1683 18.4836 29.1517 18.6116 29.0852C18.7396 29.0188 18.8498 28.9054 18.9286 28.759C19.0075 28.6126 19.0515 28.4397 19.0553 28.2613H19.0578V20.1239L30.7931 28.8873C30.8912 29.0127 31.0155 29.0983 31.1507 29.1336C31.2859 29.1688 31.4262 29.1522 31.5542 29.0858C31.6822 29.0193 31.7924 28.9059 31.8712 28.7595C31.9501 28.6132 31.9941 28.4402 31.9979 28.2619H32V4.76535C31.9998 4.58316 31.9576 4.40517 31.8789 4.25411C31.8001 4.10304 31.6883 3.98576 31.5578 3.91721C31.4273 3.84867 31.2839 3.83198 31.1461 3.86927C31.0082 3.90656 30.882 3.99615 30.7836 4.12659L19.0578 12.8825V4.76482C19.0576 4.58262 19.0154 4.40464 18.9367 4.25357C18.8579 4.10251 18.7462 3.98522 18.6156 3.91668C18.4851 3.84814 18.3418 3.83144 18.2039 3.86874C18.066 3.90603 17.9398 3.99561 17.8415 4.12605L4.09387 14.3916V1.91414H4.0885C4.08933 1.89332 4.09345 1.87411 4.09345 1.8533C4.09335 1.4948 3.9833 1.15099 3.78744 0.897284C3.59159 0.643583 3.32593 0.500708 3.04874 0.500001H1.04678V0.51281C0.909316 0.51281 0.773196 0.547826 0.646195 0.615863C0.519194 0.683899 0.403799 0.783625 0.306596 0.90934C0.209394 1.03505 0.132287 1.1843 0.0796811 1.34855C0.0270755 1.51281 7.46729e-07 1.68886 7.46729e-07 1.86664C0.000413352 1.89119 0.00495198 1.9136 0.00577719 1.93708Z" fill="black"/>
</svg>
